<?xml version="1.0" encoding="UTF-8"?>
<!DOCTYPE svg PUBLIC "-//W3C//DTD SVG 1.1//EN" "http://www.w3.org/Graphics/SVG/1.1/DTD/svg11.dtd">
<svg xmlns="http://www.w3.org/2000/svg" version="1.1" width="3966px" height="2207px" style="shape-rendering:geometricPrecision; text-rendering:geometricPrecision; image-rendering:optimizeQuality; fill-rule:evenodd; clip-rule:evenodd" xmlns:xlink="http://www.w3.org/1999/xlink">
<g><path style="opacity:0.995" fill="#fefffe" d="M -0.5,-0.5 C 78.5,-0.5 157.5,-0.5 236.5,-0.5C 609.948,734.229 983.281,1469.06 1356.5,2204C 1264.83,2204.83 1173.16,2204.67 1081.5,2203.5C 721.059,1469.62 360.392,735.952 -0.5,2.5C -0.5,1.5 -0.5,0.5 -0.5,-0.5 Z"/></g>
<g><path style="opacity:0.995" fill="#fefffe" d="M 435.5,-0.5 C 513.833,-0.5 592.167,-0.5 670.5,-0.5C 1040.15,734.14 1409.82,1468.81 1779.5,2203.5C 1688.83,2204.83 1598.17,2204.83 1507.5,2203.5C 1150.15,1468.81 792.82,734.14 435.5,-0.5 Z"/></g>
<g><path style="opacity:0.996" fill="#fefffe" d="M 1316.5,-0.5 C 1415.17,-0.5 1513.83,-0.5 1612.5,-0.5C 1802.33,11.329 1958.16,89.6623 2080,234.5C 2194.41,380.812 2239.07,546.479 2214,731.5C 2183.74,908.312 2096.57,1049.14 1952.5,1154C 1903.17,1188.33 1850.17,1215.83 1793.5,1236.5C 1946.5,1558.5 2099.5,1880.5 2252.5,2202.5C 2157.17,2203.83 2061.83,2203.83 1966.5,2202.5C 1785.61,1821.05 1604.44,1439.71 1423,1058.5C 1421.86,1055.9 1421.03,1053.24 1420.5,1050.5C 1488.51,1050.89 1556.51,1050.39 1624.5,1049C 1745.65,1038.36 1843.49,985.523 1918,890.5C 1997.63,780.35 2019.96,659.35 1985,527.5C 1946.56,405.063 1868.72,317.896 1751.5,266C 1710.16,248.916 1667.16,238.916 1622.5,236C 1426.17,235.833 1229.83,235.333 1033.5,234.5C 995.937,156.71 958.937,78.7096 922.5,0.5C 1054,0.832908 1185.33,0.499575 1316.5,-0.5 Z"/></g>
<g><path style="opacity:0.997" fill="#fefffe" d="M 3965.5,2204.5 C 3965.5,2205.17 3965.5,2205.83 3965.5,2206.5C 3540.5,2206.5 3115.5,2206.5 2690.5,2206.5C 2728.63,2114.78 2766.97,2023.11 2805.5,1931.5C 3061.5,1930.85 3317.5,1930.51 3573.5,1930.5C 3387.05,1413.27 3200.89,895.941 3015,378.5C 2807.75,952.572 2601.09,1526.9 2395,2101.5C 2394.33,2102.83 2393.67,2102.83 2393,2101.5C 2341.69,1984.38 2290.52,1867.21 2239.5,1750C 2461.66,1167.52 2683.83,585.017 2906,2.5C 2947.29,1.16945 2988.79,0.502784 3030.5,0.5C 3072.07,0.501357 3113.57,0.83469 3155,1.5C 3425.1,735.97 3695.26,1470.3 3965.5,2204.5 Z"/></g>
</svg>
